<?xml version="1.0" ?><!DOCTYPE svg  PUBLIC '-//W3C//DTD SVG 1.1//EN'  'http://www.w3.org/Graphics/SVG/1.1/DTD/svg11.dtd' [
	<!ENTITY stroke_color "#000">
	<!ENTITY fill_color "#eee">
]><svg height="55px" viewBox="0 0 55 55" width="55px" xmlns="http://www.w3.org/2000/svg" xmlns:xlink="http://www.w3.org/1999/xlink" stroke-linecap="round" stroke-linejoin="round" stroke-width="3.5" stroke="&stroke_color;" fill="&fill_color;">
  <g
     transform="translate(15.938956,-1013.8763)"
     id="layer1">
    <g
       transform="matrix(0.09201077,0,0,0.09201077,-14.4724,970.52818)"
       id="g3765">
      <path
         d="m 236.85805,908.11151 c 0,-72.18246 -33.20769,-83.93917 -34.46122,-85.72882 -0.80367,-1.1474 -3.98769,-3.32227 -7.07561,-4.83305 -5.22896,-2.55829 -5.83847,-3.23703 -8.87798,-9.88633 -2.18993,-4.79074 -6.68848,-11.25165 -13.67437,-19.63945 -15.58219,-18.70915 -16.97276,-20.53326 -25.16263,-33.00768 -4.15535,-6.32922 -8.49861,-12.36147 -9.65168,-13.40499 -1.15307,-1.04352 -2.09928,-2.39006 -2.10266,-2.99232 -0.007,-1.21554 -0.8265,-2.80785 -6.86111,-13.32884 -2.28204,-3.97861 -5.08152,-9.60361 -6.22107,-12.5 -2.49804,-6.3493 -29.178435,-69.75502 -35.939375,-85.40961 -2.64696,-6.12889 -5.90882,-12.87889 -7.24857,-15 -2.23885,-3.54457 -2.98837,-3.96093 -9.26505,-5.14669 -8.44696,-1.59575 -17.10896,-6.65475 -20.99467,-12.26182 -1.55784,-2.24797 -4.077195,-4.73091 -5.598559,-5.51764 -3.923323,-2.02883 -11.148704,-1.83137 -13.878744,0.37928 -2.147784,1.73917 -2.171586,1.93208 -0.610784,4.95034 2.900341,5.60864 1.471438,9.48723 -4.001198,10.86077 -2.943002,0.73865 -6.526243,-2.15821 -8.467933,-6.84586 -0.998371,-2.41028 -1.003139,-3.97016 -0.02339,-7.65122 1.994632,-7.49412 9.113957,-13.51276 19.562236,-16.53782 2.232832,-0.64646 4.054375,-1.79865 4.054375,-2.56452 0,-1.63262 -10.312826,-7.90197 -13.602066,-8.26893 -1.78994,-0.1997 -2.397354,0.37446 -2.906715,2.74755 -0.956022,4.45406 -2.735163,7.28396 -5.039121,8.0152 -2.3797,0.75529 -6.352537,-1.52639 -7.992164,-4.59006 -1.668271,-3.1172 -0.160467,-9.66915 3.05277,-13.26539 2.62114,-2.93356 3.309975,-3.15844 10.644893,-3.47513 7.116653,-0.30726 8.396335,-0.0572 13.82815,2.70265 3.421245,1.73826 6.360695,2.66629 6.860904,2.16608 1.72624,-1.72624 -8.259461,-17.05335 -11.110356,-17.05335 -0.528707,0 -2.66004,1.35 -4.736295,3 -4.322656,3.43521 -5.605927,3.63192 -9.035183,1.38499 -3.601644,-2.35989 -3.391659,-7.61199 0.45826,-11.46191 5.755815,-5.75582 17.15135,-3.18967 24.89335,5.60571 4.19829,4.7695 5.61549,5.01069 6.33651,1.07839 0.19089,-1.04105 1.08248,-2.35589 1.98132,-2.92187 2.66055,-1.6753 12.19821,3.41051 15.85013,8.45183 4.68271,6.46429 5.57256,10.61137 4.03052,18.78388 l -1.30427,6.91236 3.28335,6.83331 c 1.80584,3.75832 4.57094,8.71439 6.14468,11.01348 1.74603,2.55081 2.86133,5.48492 2.86133,7.5275 0,1.84102 0.6014,4.23494 1.33643,5.31982 0.73504,1.08488 3.48654,7.14751 6.11445,13.47251 9.187515,22.11301 10.650815,25.51933 12.094675,28.15429 0.79994,1.45986 1.45444,3.21259 1.45444,3.89495 0,2.5982 30.13795,71.20852 32.4838,73.95076 0.70575,0.825 2.22423,3.37227 3.3744,5.6606 1.15019,2.28833 3.49452,5.66333 5.20967,7.5 1.71514,1.83667 4.14315,4.9144 5.39558,6.8394 1.25243,1.925 3.31182,4.4 4.57642,5.5 2.29927,2 2.29927,2 1.5598,0 -2.2818,-6.17143 -0.8136,-19.32413 -1.35664,-28.5 -1.82151,-22.51719 1.38062,-43.43303 8.20639,-64.35355 2.30546,-7.56877 12.82946,-20.10392 19.07516,-29.98378 27.75253,-50.79279 57.09616,-63.08025 112.41477,-68.25912 17.66553,-1.80614 22.70174,-1.17145 39.63604,0.86966 13.20273,0.60057 40.23136,1.56866 39.74959,20.36427 -50.55918,67.15433 -63.2903,25.37099 27.38213,78.85559 14.76008,5.04922 20.08002,76.78825 28.79233,25.77516 7.02328,-23.4025 12.01792,-34.30245 32.88618,-71.76823 3.67617,-6.6 7.46472,-12.675 8.41901,-13.5 0.95428,-0.825 3.29783,-4.65 5.20791,-8.5 1.91007,-3.85 5.31322,-8.8 7.56254,-11 5.67397,-5.54954 6.79767,-8.03928 6.93916,-15.37484 l 0.12297,-6.37484 5.58074,-5.12516 c 8.5647,-7.86553 10.74324,-9.12516 15.78206,-9.12516 4.37486,0 4.5148,0.0973 5.03201,3.5 0.60482,3.97916 1.42294,4.0438 6.76119,0.53417 11.28397,-7.41864 25.02047,-4.51545 26.73809,5.65105 0.84765,5.01716 -1.36248,7.81478 -6.17372,7.81478 -2.80038,0 -3.73567,-0.63869 -5.85757,-4 -3.58596,-5.68054 -6.41336,-5.21923 -14.25,2.325 -4.74264,4.56568 -5.80422,8.39176 -2,7.20831 4.703,-1.46305 13.17882,-1.75561 18.2144,-0.62869 5.63002,1.25994 9.63321,4.54376 11.47198,9.41048 1.09371,2.89473 1.50571,11.46033 0.50301,10.45763 -0.30832,-0.30834 -1.63787,0.51666 -2.95453,1.83333 -2.77126,2.77126 -6.64338,3.11277 -8.59743,0.75828 -0.74662,-0.89961 -1.58921,-3.9371 -1.87245,-6.75 -0.45798,-4.54832 -0.79165,-5.14617 -3.01497,-5.40191 -4.00016,-0.46012 -14.5,3.25768 -14.5,5.13418 0,0.88604 2.925,3.53302 6.5,5.88218 8.27065,5.43472 15,14.98533 15,21.28872 -10e-6,4.38703 -1.34628,6.48249 -4.16482,6.48249 -2.3238,0 -3.83519,-2.98691 -3.83519,-7.5794 0,-5.26344 -4.4877,-11.99846 -9.26981,-13.91188 -7.44215,-2.97776 -16.17899,-1.38577 -18.23019,3.32184 -0.55,1.26229 -3.40359,3.67334 -6.34133,5.3579 -4.94754,2.83703 -5.88312,3.02806 -12.6902,2.59121 -4.04188,-0.25939 -7.74705,-0.20343 -8.23372,0.12435 -1.46642,0.98768 -8.57543,12.02461 -13.9102,21.59598 -11.54668,20.71644 -21.21718,41.74094 -25.29798,55 -3.00912,9.777 -7.79485,33.78807 -8.60233,43.15975 -1.48379,17.22129 -18.05112,48.17877 -38.98146,72.84025 -2.80073,3.3 -6.07111,7.62812 -7.26751,9.61803 l -2.17527,3.61804 -28.5,95.94083 c -25.7232,-6.51451 -108.11688,32.04165 -121.5,3.41075 z M 510.36229,558.15224 c 0.87622,-2.28343 -0.3356,-2.59095 -2.4981,-0.63393 -2.75186,2.49041 -2.77131,5.00036 -0.0254,3.28554 1.08938,-0.68033 2.22497,-1.87355 2.52355,-2.65161 l -5e-5,0 z M 62.364925,556.05513 c -0.75692,-3.44623 -2.99206,-4.94607 -4.75045,-3.18768 -0.81221,0.8122 -0.70104,1.584 0.41521,2.88278 0.83841,0.9755 1.83253,2.63638 2.20916,3.69085 1.1291,3.16121 2.93307,0.28825 2.12608,-3.38595 z"
         id="path3305"
         style="fill:&fill_color;;fill-opacity:1" />
      <path
         d="m 204.85805,907.41107 c 0,-57.91461 -0.33123,-84.13763 -1.08049,-85.53761 -0.59426,-1.1104 -2.70318,-2.69692 -4.68646,-3.52559 -6.37306,-2.66283 -9.61791,-5.89947 -12.03753,-12.00705 -1.42583,-3.59908 -5.17051,-9.24846 -9.8214,-14.81696 -15.70694,-18.8059 -22.31693,-27.34289 -27.89683,-36.0296 -3.16917,-4.93372 -7.03714,-10.59639 -8.59548,-12.58372 -2.63484,-3.36014 -9.31017,-15.07292 -13.89844,-24.38668 -1.0838,-2.2 -6.31363,-14.35 -11.62186,-27 -5.30822,-12.65 -11.18624,-26.6 -13.06226,-31 -1.87602,-4.4 -5.904075,-14.075 -8.951245,-21.5 -6.40384,-15.6042 -12.58446,-28.37932 -14.80354,-30.5984 -2.1281,-2.1281 -1.93294,-3.4016 0.52129,-3.4016 1.13615,0 2.92079,-0.45761 3.96586,-1.01692 2.50239,-1.33923 3.57315,0.36569 9.43128,15.01692 2.52897,6.325 5.00334,12.23164 5.49858,13.12587 0.49524,0.89423 2.353425,5.39423 4.129305,10 4.55462,11.81248 18.9627,45.74723 26.58322,62.61033 8.85668,19.59854 11.89967,24.47001 26.81351,42.92527 1.40514,1.7388 3.04261,4.5608 3.63883,6.2711 0.59622,1.71031 1.99851,3.59906 3.1162,4.19723 1.82433,0.97636 1.97162,0.84636 1.44014,-1.27111 -0.32561,-1.29728 -1.93491,-6.18369 -3.57622,-10.85869 -4.32979,-12.33272 -5.5022,-23.29459 -4.7049,-43.98958 0.67255,-17.45675 3.3731,-35.24118 5.99961,-39.51042 0.67674,-1.1 2.49129,-5.6 4.03234,-10 3.51383,-10.03271 8.1666,-19.31831 15.41307,-30.76006 3.10938,-4.90953 6.33852,-10.23186 7.17588,-11.8274 2.66792,-5.08363 12.1161,-15.02601 17.63249,-18.55481 2.93425,-1.87702 6.02544,-4.46647 6.86928,-5.75434 2.16701,-3.30726 17.21044,-13.19662 28.45931,-18.70877 13.66851,-6.69781 29.59297,-10.16966 55.51647,-12.10368 28.22744,-2.10592 46.95989,-1.16454 62.49569,3.14065 7.057,1.95559 9.89877,3.52496 17.75431,9.80479 3.97317,3.17622 4.25,3.72092 4.25,8.36269 0,2.73084 -0.67709,6.58565 -1.50463,8.56625 -2.00131,4.78982 -16.59896,19.17238 -23.49537,23.14919 -7.69966,4.44 -12.73793,8.83241 -11.5,10.02579 0.54999,0.5302 3.04413,1.64599 5.54251,2.47954 8.60654,2.87144 27.4811,12.58795 37.6387,19.37616 10.2766,6.86773 14.67562,10.63033 21.62464,18.49607 2.09324,2.36936 5.19478,5.88293 6.89233,7.80793 4.08083,4.6276 9.15103,15.91843 10.77732,24 2.04721,10.17338 2.77432,10.1007 5.00176,-0.5 0.57785,-2.75 1.65008,-6.575 2.38275,-8.5 0.73266,-1.925 2.3451,-6.65 3.58319,-10.5 3.12142,-9.70657 10.17344,-25.69865 16.43394,-37.2678 11.49906,-21.24981 19.01981,-34.17054 20.13974,-34.6003 0.64711,-0.24832 2.39723,0.52185 3.88917,1.71148 l 2.71262,2.16296 -3.86908,5.99683 c -7.87537,12.20633 -20.85254,36.71769 -27.52892,51.99683 -7.48343,17.12608 -13.6568,41.29141 -15.71104,61.5 -0.65229,6.4169 -1.90103,11.77176 -3.84776,16.5 -3.7387,9.08057 -11.97225,25.53694 -13.83194,27.64581 -0.79823,0.90519 -2.88652,3.91348 -4.64063,6.68508 -5.50035,8.69086 -11.34965,16.48533 -16.26139,21.66911 -2.60569,2.75 -5.85694,7.025 -7.22499,9.5 -2.96854,5.37052 -2.68536,-5.14591 -2.98209,110.75 -9.43119,12.00172 -191.10323,92.75394 -180.22084,-7.36279 z m 106.0191,-87.33019 c 3.0145,-1.66144 4.8059,-3.02859 3.98091,-3.03812 -1.86175,-0.0215 -14,5.6549 -14,6.54704 0,1.13738 4.35834,-0.38902 10.01909,-3.50892 z m -46.30317,-5.70482 c 0.39827,-1.19477 -7.43287,-4.96859 -8.36861,-4.03284 -0.86269,0.8627 1.62766,3.72049 4.11797,4.72555 2.38194,0.96132 3.77499,0.7343 4.25064,-0.69271 z m -18.00652,-9.97899 c 0.53571,-1.60914 -2.89391,-2.69269 -3.81347,-1.20483 -0.42018,0.67987 -0.5267,1.62003 -0.23672,2.08924 0.71013,1.14901 3.582,0.52189 4.05019,-0.88441 z m 47.2906,-0.42201 c -0.82501,-0.56 -2.39999,-1.51858 -3.5,-2.1302 -1.97411,-1.09762 -1.97535,-1.08425 -0.095,1.03349 1.04774,1.18003 2.62275,2.13862 3.5,2.1302 1.39808,-0.0134 1.40981,-0.14102 0.095,-1.03349 z m 15.60389,-5.23084 c 0.89354,-1.7712 1.2322,-2.77036 0.75261,-2.22036 -0.4796,0.55 -2.21852,2.52082 -3.86426,4.37961 -2.54332,2.87256 -2.65623,3.20568 -0.75259,2.22036 1.23181,-0.63759 2.97072,-2.60842 3.86424,-4.37961 z m 3.3772,-23.47 c -0.95497,-1.49417 -1.03745,-1.38446 -0.56356,0.74964 0.30533,1.375 0.64638,4.75 0.75789,7.5 l 0.20274,5 0.36081,-5.74964 c 0.19987,-3.18503 -0.13818,-6.53038 -0.75788,-7.5 z m -3.98109,-6.75036 c -0.6847,-0.825 -1.97729,-1.48405 -2.87243,-1.46456 -1.11991,0.0244 -0.84779,0.4812 0.87243,1.46456 3.20916,1.83453 3.52252,1.83453 2,0 z m -19.5,-0.5 c 0.33992,-0.55 0.16802,-1 -0.38198,-1 -0.55,0 -1.27811,0.45 -1.61802,1 -0.33992,0.55 -0.16804,1 0.38198,1 0.54999,0 1.2781,-0.45 1.61802,-1 z m 71,-50 c -0.33992,-0.55 -1.04147,-1 -1.55902,-1 -0.51753,0 -0.94098,0.45 -0.94098,1 0,0.55 0.70155,1 1.55901,1 0.85747,0 1.2809,-0.45 0.94099,-1 z m 5.76357,-3.15543 c 1.23004,-0.63548 2.88466,-1.45513 3.67691,-1.82144 2.13234,-0.9859 2.45597,-2.93377 0.60544,-3.64389 -0.89122,-0.34199 -2.42658,0.10777 -3.41191,0.99948 -0.98532,0.8917 -2.54356,1.62128 -3.46275,1.62128 -1.0046,0 -1.67126,0.7978 -1.67126,2 0,2.28267 1.06981,2.49459 4.26357,0.84457 z m -142.47274,-5.97895 c 0.3185,-1.67233 -4.18655,-3.86562 -7.94006,-3.86562 -2.44437,0 -2.38347,2.04794 0.08,2.69216 1.06194,0.27771 2.18493,1.16714 2.49551,1.97652 0.7459,1.94377 4.96155,1.31269 5.36451,-0.80306 l 4e-5,0 z m -48.82426,-46.10699 c 1.89942,-3.39569 0.55353,-6.11201 -3.25483,-6.56901 -1.87619,-0.22514 -3.04723,0.39277 -4.26414,2.25 -1.57021,2.39644 -1.57016,2.72438 5.9e-4,5.12165 2.13785,3.26279 5.44164,2.91009 7.51839,-0.80264 l -10e-6,0 z m 183.03343,-5.75863 c 0,-2.27384 -2.50788,-2.72483 -3.32411,-0.59777 -0.62757,1.63544 0.10991,2.59777 1.99077,2.59777 0.73334,0 1.33333,-0.9 1.33333,-2 z m 16.54545,-1.45455 c 4.58321,-4.58321 2.36703,-8.54545 -4.77972,-8.54545 -4.07808,0 -5.76573,1.50114 -5.76573,5.12857 0,5.79874 6.1658,7.79655 10.54545,3.41688 z M 187.14789,649.8142 c 3.52423,-1.84965 6.39658,-2.29769 17.63006,-2.75 14.25119,-0.57381 17.29741,-1.79036 10.38191,-4.14613 -4.73665,-1.61353 -17.4144,-1.63749 -22.99927,-0.0435 -3.95229,1.12811 -10.30253,6.19853 -10.30253,8.22621 0,1.32487 0.58542,1.18248 5.28984,-1.28658 z m 175.71017,-76.79034 c 4.76086,-4.76087 0.39806,-12 -7.23203,-12 -5.5216,0 -8.76797,2.20961 -8.76797,5.96781 0,6.53218 11.25626,10.77592 16,6.03219 z m -39.65088,-11.64674 c 8.22465,-0.69523 10.12957,-2.43513 4.90088,-4.47631 -4.48815,-1.75208 -28.25,0.88283 -28.25,3.13259 0,1.87644 10.14221,2.46012 23.34911,1.34372 l 10e-6,0 z"
         id="path3303"
         style="fill:&fill_color;;fill-opacity:1" />
      <path
         d="m 273.18948,1042.2894 c -2.89468,-0.2041 -5.69824,-1.0026 -6.37246,-1.815 -0.66212,-0.7978 -1.754,-1.4505 -2.42642,-1.4505 -2.48598,0 -4.56723,-3.8887 -8.58601,-16.0424 -2.26561,-6.8517 -4.48414,-12.9076 -4.9301,-13.4576 -0.44596,-0.55 -1.01438,-3.25 -1.26316,-6 -0.47707,-5.27331 -1.84509,-9.63794 -4.90085,-15.63619 -1.01884,-1.99989 -1.85243,-5.26239 -1.85243,-7.25 0,-2.94718 -0.36895,-3.61385 -2,-3.61385 -1.1,0 -2,0.49041 -2,1.08981 0,1.64304 -4.78895,6.51665 -11.5,11.70331 -3.3,2.55042 -6.45,5.12616 -7,5.72388 -0.59226,0.64365 -3.49829,0.92999 -7.12712,0.70226 -5.35717,-0.33619 -6.26824,-0.6942 -7.25,-2.84894 -0.80187,-1.75988 -1.12288,-26.34124 -1.12288,-85.98311 0,-57.91461 -0.33123,-84.13763 -1.08049,-85.53761 -0.59427,-1.1104 -2.70318,-2.69692 -4.68646,-3.52559 -6.37306,-2.66283 -9.61791,-5.89947 -12.03753,-12.00705 -1.42583,-3.59908 -5.17051,-9.24846 -9.8214,-14.81696 -15.70694,-18.8059 -22.31693,-27.34289 -27.89683,-36.0296 -3.16917,-4.93372 -7.03714,-10.59639 -8.59548,-12.58372 -2.63484,-3.36014 -9.31017,-15.07292 -13.89844,-24.38668 -1.0838,-2.2 -6.31363,-14.35 -11.62186,-27 -5.30822,-12.65 -11.18624,-26.6 -13.06226,-31 -1.87602,-4.4 -5.904075,-14.075 -8.951245,-21.5 -6.40384,-15.6042 -12.58446,-28.37932 -14.80354,-30.5984 -2.1281,-2.1281 -1.93294,-3.4016 0.52129,-3.4016 1.13615,0 2.92079,-0.45761 3.96586,-1.01692 2.50239,-1.33923 3.57315,0.36569 9.43128,15.01692 2.52897,6.325 5.00334,12.23164 5.49858,13.12587 0.49524,0.89423 2.353425,5.39423 4.129305,10 10.39043,26.94779 31.25873,73.95296 37.10216,83.57144 3.60578,5.93524 6.16569,9.39026 16.15738,21.8071 1.32968,1.65242 3.11517,4.6739 3.96775,6.71441 0.95723,2.29099 2.43593,3.94677 3.86603,4.32904 1.27375,0.34047 4.05842,3.03491 6.18818,5.98764 4.12793,5.72304 15.48316,17.34709 19.62772,20.09237 3.49546,2.31533 18,16.62448 18,17.75753 0,1.02751 9.46136,10.52443 12.06923,12.1146 0.902,0.55 4.34822,3.16528 7.65826,5.81174 12.149,9.7134 39.35226,23.68074 53.24417,27.33787 5.13853,1.35275 6.23444,1.28008 18,-1.19349 6.89059,-1.44866 16.53469,-3.95841 21.43134,-5.57722 12.58995,-4.16218 34.27476,-14.50978 39.597,-18.89497 2.475,-2.03924 5.96004,-4.54043 7.74453,-5.55819 2.35985,-1.34592 3.42475,-2.81116 3.90549,-5.37373 0.47565,-2.53541 2.79501,-5.7703 8.27226,-11.53763 10.29629,-10.84156 15.71931,-17.43559 22.62822,-27.51438 3.20467,-4.675 6.90647,-10.075 8.22623,-12 3.82933,-5.58544 10.93524,-20.80951 13.74879,-29.45612 1.57283,-4.83361 2.96303,-12.21984 3.54223,-18.82005 0.52434,-5.97517 1.57224,-12.06992 2.32867,-13.54389 0.75642,-1.47397 1.92757,-5.35889 2.60253,-8.63315 0.67497,-3.27427 1.787,-7.32427 2.47118,-9 0.68418,-1.67574 2.252,-6.19679 3.48404,-10.04679 3.09299,-9.6653 10.14103,-25.65905 16.42296,-37.2678 11.30941,-20.89935 19.01174,-34.16744 20.07057,-34.57376 0.60906,-0.23372 2.3435,0.56071 3.85432,1.7654 l 2.74694,2.19033 -3.83423,5.94292 c -7.84207,12.15491 -20.83068,36.69354 -27.49406,51.94291 -7.48343,17.12608 -13.6568,41.29141 -15.71104,61.5 -0.65229,6.4169 -1.90103,11.77176 -3.84776,16.5 -3.7387,9.08057 -11.97225,25.53694 -13.83193,27.64581 -0.79823,0.90519 -2.88652,3.91348 -4.64064,6.68508 -5.50035,8.69086 -11.34965,16.48533 -16.26139,21.66911 -2.60569,2.75 -5.85693,7.025 -7.22498,9.5 -2.96854,5.37052 -2.68537,-5.14591 -2.9821,110.75 l -0.22083,86.25004 -2.28759,0 c -3.32283,0 -11.14599,-8.4299 -14.15246,-15.25004 -2.75313,-6.24543 -5.17343,-7.43779 -6.08953,-3 -2.18593,10.58909 -5.00101,20.16244 -6.61197,22.48554 -1.04334,1.5046 -2.30256,3.8024 -2.79829,5.1062 -0.49572,1.3039 -2.67238,3.2469 -4.83702,4.3179 -3.40129,1.6828 -4.39653,1.7806 -7.32942,0.7199 -1.86655,-0.6751 -4.64534,-1.2616 -6.1751,-1.3035 -1.69908,-0.047 -3.02129,-0.757 -3.39789,-1.826 -0.33907,-0.9625 -1.6594,-3.1621 -2.93406,-4.888 -2.88263,-3.9031 -6.38667,-16.25894 -6.38667,-22.52051 0,-2.99325 -0.58657,-5.28524 -1.61606,-6.31474 -3.16591,-3.1659 -3.56379,-2.48422 -11.36593,19.47321 -2.05203,5.77504 -4.18822,11.62504 -4.74709,13.00004 -0.55886,1.375 -1.33307,3.9573 -1.72045,5.7385 -0.38739,1.7812 -1.11972,3.4952 -1.62741,3.809 -0.50768,0.3138 -0.92357,1.7814 -0.92418,3.2615 -10e-4,2.5978 -0.98238,3.839 -8.58542,10.86 -1.69759,1.5676 -3.30396,3.5024 -3.56969,4.2997 -0.26574,0.7972 -1.8018,1.5438 -3.41347,1.6591 -1.61165,0.1153 -3.29436,0.2462 -3.73932,0.2909 -0.44496,0.045 -0.5309,0.5313 -0.19098,1.0813 0.33992,0.55 0.029,0.9167 -0.69098,0.815 -0.71996,-0.1018 -3.63488,-0.349 -6.4776,-0.5495 z m 3.20823,-225.76815 c -23.81315,-10.95798 -54.20856,-32.71688 -72.08969,-51.60623 -13.21634,-13.96153 -27.25467,-35.7287 -30.8865,-47.89116 -0.9033,-3.025 -1.91348,-9.82005 -2.24484,-15.10011 -0.55784,-8.88861 -0.41127,-10.01779 1.97761,-15.23579 7.48686,-16.35344 30.71014,-27.47633 46.4512,-22.24799 7.67144,2.54805 15.40356,8.43391 30.25256,23.02892 7.425,7.298 15.525,14.67834 18,16.40077 13.14822,9.15023 30.71416,9.52234 47.70306,1.0105 5.45354,-2.73235 12.5713,-7.83299 39.29694,-28.16048 7.0611,-5.37067 19.22618,-11.69917 22.47179,-11.69024 3.81707,0.0105 9.46519,2.07051 12.36355,4.50932 3.35159,2.82018 9.98719,18.10695 12.5906,29.00561 2.3595,9.87759 1.64238,30.20821 -1.41019,39.97949 -3.80044,12.1652 -13.10724,27.67258 -21.51575,35.85045 -15.20779,14.79064 -38.03517,28.3947 -66,39.33295 -11.26878,4.4077 -22.51446,8.3166 -23.92637,8.3166 -0.59184,0 -6.45712,-2.47617 -13.03397,-5.50261 z m 26.79729,-11.4354 c 6.70417,-2.54892 12.48446,-15.47864 11.31901,-25.31907 -0.7456,-6.29537 -4.75931,-12.74751 -7.92015,-12.73183 -2.06549,0.0102 -1.99331,0.20224 0.9475,2.52029 3.76426,2.96712 5.91165,10.95413 4.77596,17.76377 -1.52625,9.15153 -8.04606,17.70485 -13.49561,17.70485 -3.02082,0 -8.92935,-3.77766 -9.98115,-6.38155 -0.84299,-2.08693 -0.85668,-2.0843 -0.91911,0.177 -0.10231,3.70479 4.18513,7.20455 8.82605,7.20455 2.18919,0 5.09058,-0.4221 6.4475,-0.93801 z m -13.56612,-36.87449 c 0.21771,-0.65313 -0.31666,-1.1875 -1.1875,-1.1875 -0.87083,0 -1.58333,0.7125 -1.58333,1.58333 0,1.76593 2.15276,1.45839 2.77083,-0.39583 z m -48.64446,-44.69077 c 0.95406,-1.6482 2.03155,-4.20167 2.39439,-5.67438 0.55859,-2.26711 0.2091,-2.91068 -2.27945,-4.19757 -1.61656,-0.83595 -5.14467,-2.05586 -7.84025,-2.71091 -2.69558,-0.65506 -7.15106,-2.20374 -9.90106,-3.44153 -10.87808,-4.89626 -18.60443,-3.29091 -11.48359,2.38601 7.93611,6.32688 24.54827,17.17955 25.89863,16.9195 0.81217,-0.15641 2.25727,-1.63292 3.21133,-3.28112 z m 117.16347,0.36252 c 6.36282,-3.23533 15.76032,-9.82639 16.40474,-11.50568 1.16575,-3.03793 -1.22,-3.66728 -9.32969,-2.46111 -7.62374,1.13389 -14.49425,4.14866 -17.38071,7.6266 -1.15363,1.39004 -1.0808,2.14605 0.4872,5.05764 2.16385,4.01803 3.97371,4.25445 9.81846,1.28255 z m -64.79023,-40.24516 c -3.84227,-1.67454 -6.02319,-4.17247 -4.47717,-5.12796 1.05946,-0.65478 8.43373,0.0317 12.22756,1.13822 2.18178,0.63636 2.29871,3.95111 0.16821,4.76866 -2.3462,0.90033 -4.5667,0.6819 -7.9186,-0.77892 z m -3.61454,-9.93402 c -8.62438,-3.22442 -14.1676,-10.15674 -12.30729,-15.39147 1.14289,-3.21604 3.37239,-3.44271 14.42223,-1.46631 3.57499,0.63943 10.2125,1.166 14.75,1.17016 l 8.25,0.008 0,2.85212 c 0,3.66622 -3.61897,9.02123 -7.71222,11.41182 -4.19309,2.44889 -12.77292,3.14707 -17.40272,1.41613 z m -31.97768,-15.47912 c -4.08347,-2.03845 -4.47747,-4.57692 -0.77696,-5.00583 1.67159,-0.19375 3.65493,0.57635 5.44095,2.11262 2.74113,2.35782 2.76032,2.44437 0.77695,3.50584 -1.56638,0.8383 -2.81635,0.69756 -5.44094,-0.61263 z m 69.09262,-3.02664 c 0,-2.2441 4.01941,-6.17431 6.31445,-6.17431 2.43902,0 2.0854,3.27574 -0.62889,5.82569 -2.83459,2.66294 -5.68556,2.83776 -5.68556,0.34862 z m -85.00001,-7.32585 c -4.68191,-4.10706 -9.94114,-6.37131 -19.20783,-8.26955 -9.57505,-1.9614 -19.27538,-2.01621 -26.64782,-0.15058 -8.5376,2.16049 -11.64434,2.32413 -11.64434,0.61335 0,-2.77864 12.90916,-6.35765 24.62793,-6.828 15.65533,-0.62835 27.72338,3.45181 35.42562,11.97728 5.63761,6.24015 3.75913,8.19509 -2.55355,2.6575 z m 135.50146,0.0161 c -4.91252,-1.99151 -8.9593,-2.07796 -15.75145,-0.33648 -2.34882,0.60223 -2.75,0.39968 -2.75,-1.38843 0,-3.55517 4.25675,-5.48538 10.78201,-4.88905 6.98524,0.63835 15.21799,4.39751 15.21799,6.94869 0,2.25843 -1.23832,2.20315 -7.49855,-0.33473 z m -51.00145,-26.59118 c -10.59496,-1.50784 -35.0308,-6.40418 -35.80007,-7.17344 -1.36183,-1.36183 0.0919,-3.09766 2.60908,-3.11525 1.20504,-0.008 2.78887,-0.39436 3.51963,-0.85763 0.88679,-0.56219 -1.52423,-1.73178 -7.25,-3.51699 -6.73961,-2.1013 -8.57864,-3.07357 -8.57864,-4.53539 0,-2.32207 1.89553,-3.07468 7.74389,-3.07468 7.55475,0 15.22279,2.96581 20.03242,7.74804 2.35198,2.33858 4.61563,4.25196 5.03035,4.25196 3.11257,0 28.4212,-12.4365 40.69334,-19.99644 14.67818,-9.04212 23.51842,-14.00356 24.95139,-14.00356 2.10898,0 1.9609,3.27152 -0.35343,7.80797 -2.31108,4.53008 -17.04858,18.8677 -24.31644,23.65664 -2.90484,1.91406 -7.20997,4.84255 -9.56695,6.50775 -2.35698,1.6652 -4.536,3.02764 -4.84226,3.02764 -0.30627,0 -1.70103,0.9 -3.09945,2 -2.46165,1.93634 -4.45719,2.17221 -10.77287,1.27338 z m -62.01998,-7.30569 c -1.14072,-1.84575 1.00913,-3.1379 4.64282,-2.79053 4.78469,0.45739 4.57125,3.22331 -0.27994,3.62767 -2.0114,0.16765 -3.9747,-0.20906 -4.36288,-0.83714 z"
         id="path3301"
         style="fill:&fill_color;;fill-opacity:1;stroke:none" />
      <path
         d="m 204.40746,823.48787 c -1.03694,-2.48174 -2.58726,-3.99971 -5.19987,-5.09133 -6.49154,-2.71233 -9.7219,-5.91657 -12.15401,-12.05572 -1.42583,-3.59908 -5.17052,-9.24846 -9.82141,-14.81696 -15.70694,-18.8059 -22.31693,-27.34289 -27.89683,-36.0296 -3.16917,-4.93372 -7.03713,-10.59639 -8.59548,-12.58372 -2.63484,-3.36014 -9.31017,-15.07292 -13.89844,-24.38668 -1.0838,-2.2 -6.31363,-14.35 -11.62186,-27 -5.30822,-12.65 -11.18624,-26.6 -13.06226,-31 -1.87602,-4.4 -5.904075,-14.075 -8.951245,-21.5 -6.48272,-15.7964 -12.58995,-28.38481 -14.88353,-30.67839 -1.49926,-1.49927 -1.3293,-1.72755 2.20554,-2.96234 2.1065,-0.73583 4.32738,-1.1568 4.9353,-0.93549 0.60792,0.22132 3.43566,6.17901 6.28387,13.23931 2.84821,7.0603 5.58225,13.56855 6.07565,14.46278 0.49339,0.89423 2.350065,5.39423 4.125945,10 10.39043,26.94779 31.25873,73.95296 37.10216,83.57144 3.60578,5.93524 6.16569,9.39026 16.15738,21.8071 1.32968,1.65242 3.12186,4.68992 3.98262,6.75 0.86075,2.06007 1.99847,3.74559 2.52826,3.74559 0.52978,0 3.12544,3.0375 5.76812,6.75 2.64269,3.7125 7.29469,9.2979 10.33778,12.41199 5.30791,5.43176 9.73031,10.62978 22.29078,26.20029 3.16683,3.92575 7.47385,9.16272 9.57115,11.63772 2.09731,2.475 4.08481,5.23584 4.4167,6.1352 0.96294,2.60953 -1.97274,5.8648 -5.289,5.8648 -2.40891,0 -3.19259,-0.62876 -4.40731,-3.53599 z m 71.4506,-8.80577 c -18.75157,-9.40201 -24.64336,-13.09058 -44.00001,-27.54629 -11.89287,-8.8817 -33.82944,-29.94767 -36.43781,-34.9917 -1.39573,-2.69905 -2.23316,-17.43238 -2.49156,-43.83507 -0.0839,-8.57606 -0.46176,-8.91565 -11.88471,-10.68182 -9.92367,-1.53436 -10.48951,-2.51307 -6.33361,-10.9549 3.98249,-8.08958 10.08325,-13.69786 20.13776,-18.51214 6.51727,-3.12059 8.46783,-3.58962 15.0184,-3.61135 12.15415,-0.0403 18.0349,3.42105 36.49153,21.47859 17.35017,16.97501 22.54739,21.10146 30.34746,24.09509 11.18758,4.29373 27.16715,2.30357 40.87595,-5.09087 7.20554,-3.88661 10.72455,-6.38103 33.7766,-23.94226 6.60001,-5.02793 14.33462,-10.24955 17.18806,-11.6036 8.78609,-4.16929 17.41265,-2.96322 22.18307,3.10139 2.46872,3.13847 7.32056,15.46807 10.16082,25.82095 2.82311,10.29028 2.09655,11.61574 -6.36714,11.61574 -3.53931,0 -6.78688,0.52206 -7.46482,1.2 -0.86691,0.86691 -1.2061,8.01451 -1.22196,25.75 -0.0258,28.83268 -0.10616,29.1401 -10.09117,38.60273 -16.38576,15.52853 -43.26262,30.25546 -75.79689,41.53225 -4.62554,1.60326 -9.57555,2.89768 -11,2.87648 -1.42449,-0.0212 -7.31497,-2.40765 -13.08997,-5.30322 z m 27.33886,-8.59698 c 7.90389,-3.00505 13.68001,-17.2254 11.57451,-28.49555 -1.13536,-6.07737 -5.12397,-11.56571 -8.40525,-11.56571 -3.77525,0 -3.80665,1.62632 -0.0739,3.82868 9.98915,5.89374 5.35216,30.92798 -6.26891,33.84468 -3.58115,0.89881 -9.08835,-2.1542 -10.33457,-5.72915 -1.21505,-3.48543 -3.46736,-3.38813 -3.05425,0.13195 0.83257,7.09406 8.80119,10.93591 16.5624,7.9851 l -2e-5,0 z m -13.53887,-36.26126 c 1.80628,-1.80627 1.44268,-3.8 -0.693,-3.8 -1.73495,0 -3.10699,1.80252 -3.10699,4.08179 0,1.31149 2.38347,1.13474 3.79999,-0.28179 z m -49.55455,-43.55 c 2.57326,-2.89521 4.83043,-9.29202 3.87879,-10.9925 -1.08412,-1.93721 -9.14367,-5.20697 -20.12424,-8.1644 -4.675,-1.25913 -9.48212,-2.75497 -10.68254,-3.32409 -1.20039,-0.56912 -2.88789,-0.76409 -3.75,-0.43327 -2.75464,1.05706 -1.69453,4.39555 2.43411,7.66549 6.53927,5.17921 24.29652,16.99877 25.53827,16.99877 0.63261,0 1.85013,-0.7875 2.7056,-1.75 z m 122.82656,-4.29327 c 10.1861,-6.12203 13.10316,-8.74107 12.71958,-11.42011 -0.26211,-1.8307 -0.89823,-2.0056 -6.29158,-1.72981 -8.4672,0.43298 -15.3866,2.61623 -19.75,6.23164 -4.35374,3.6074 -4.44848,4.09533 -1.66844,8.59352 2.83299,4.58387 4.97445,4.34455 14.99044,-1.67524 z m 9.90648,91.00306 c -0.87046,-1.62646 -0.65826,-2.74187 1.04638,-5.5 1.17603,-1.90289 2.48568,-3.45979 2.91027,-3.45979 2.05758,0 22.5351,-25.5325 31.27868,-39 13.29435,-20.4769 18.79188,-35.44977 20.76859,-56.56457 0.94115,-10.05308 3.25801,-21.48115 5.8662,-28.93543 0.57732,-1.65 2.02449,-5.925 3.21593,-9.5 3.2309,-9.69455 10.37093,-25.78783 16.31261,-36.7678 11.24966,-20.78896 19.04547,-34.2322 19.85143,-34.2322 1.53787,0 5.77143,3.21169 5.77143,4.37836 0,0.63158 -1.49824,3.39233 -3.32943,6.13499 -6.68786,10.01675 -20.30381,35.77683 -26.9499,50.98665 -7.48343,17.12608 -13.6568,41.29141 -15.71104,61.5 -0.65229,6.4169 -1.90103,11.77176 -3.84776,16.5 -3.7387,9.08057 -11.97225,25.53694 -13.83193,27.64581 -0.79823,0.90519 -2.88652,3.91348 -4.64064,6.68508 -5.51862,8.71973 -11.35672,16.49327 -16.27398,21.66911 -2.61261,2.75 -5.92607,7.33808 -7.36324,10.19573 -2.69345,5.35559 -8.48595,10.30427 -12.06131,10.30427 -1.05622,0 -2.41175,-0.9181 -3.01229,-2.04021 z"
         id="path3299"
         style="fill:&stroke_color;;fill-opacity:1" />
      <path
         d="m 195.85805,815.05524 c 0,-0.53273 0.67501,-0.70959 1.5,-0.39301 0.825,0.31659 1.5,0.75246 1.5,0.96862 0,0.21615 -0.675,0.39301 -1.5,0.39301 -0.82499,0 -1.5,-0.43588 -1.5,-0.96862 z m 96.5889,-22.10811 c -2.1557,-2.5619 -2.58889,-4.08072 -2.58889,-9.07692 0,-5.29846 0.34186,-6.34206 2.92309,-8.92327 3.51906,-3.51909 6.00285,-3.69527 8.88247,-0.63006 4.63729,4.93617 4.87482,12.76962 0.58998,19.45698 -2.15648,3.36566 -6.59375,2.99159 -9.80665,-0.82673 z M 273.35806,721.4247 c -1.1,-0.26619 -7.17501,-1.64674 -13.5,-3.06788 -11.60065,-2.60649 -19.1067,-5.7974 -33.48413,-14.23448 -7.57122,-4.443 -13.32486,-5.31389 -16.957,-2.56668 -2.80302,2.12011 -4.56723,1.87252 -14.60456,-2.04966 -4.95146,-1.93482 -11.70573,-3.80039 -15.0095,-4.1457 -3.30378,-0.34531 -6.25911,-1.03598 -6.56741,-1.53482 -0.3083,-0.49884 0.59106,-3.26078 1.99858,-6.13763 7.08543,-14.48211 25.83034,-24.46956 40.65053,-21.65896 8.55404,1.62224 15.05746,6.29317 33.40862,23.99497 18.45214,17.7992 23.48812,21.17726 34.67137,23.257 4.35779,0.81041 7.85853,0.79608 13.33019,-0.0546 14.70858,-2.28667 23.6455,-7.24483 50.56331,-28.05227 16.24955,-12.56089 24.34651,-17.15013 30.2586,-17.15013 5.2854,0 10.29841,2.52882 12.60065,6.35646 4.28877,7.1303 11.5397,29.44032 10.47234,32.22181 -0.26313,0.68571 -4.89197,1.36018 -11.91953,1.7368 -9.50689,0.50948 -12.08536,0.3315 -14.94363,-1.03151 -3.32477,-1.58547 -3.78268,-1.54387 -12.21136,1.10954 -4.8164,1.51623 -15.28206,4.02943 -23.25707,5.58488 -7.975,1.55545 -18.77499,3.83328 -24,5.06184 -7.07077,1.66256 -13.33563,2.3119 -24.5,2.53938 -8.25,0.1681 -15.89999,0.0878 -17,-0.17836 z"
         id="path3297"
         style="fill:none" />
    </g>
  </g>
</svg>
